<svg width="60" height="60" viewBox="0 0 60 60" fill="none" xmlns="http://www.w3.org/2000/svg">
<path d="M23.875 30.0002L42.25 48.3752C42.875 49.0002 43.1775 49.7294 43.1575 50.5627C43.1375 51.3961 42.8142 52.1252 42.1875 52.7502C41.5608 53.3752 40.8317 53.6877 40 53.6877C39.1683 53.6877 38.4392 53.3752 37.8125 52.7502L18.5625 33.5627C18.0625 33.0627 17.6875 32.5002 17.4375 31.8752C17.1875 31.2502 17.0625 30.6252 17.0625 30.0002C17.0625 29.3752 17.1875 28.7502 17.4375 28.1252C17.6875 27.5002 18.0625 26.9377 18.5625 26.4377L37.8125 7.18773C38.4375 6.56273 39.1775 6.26023 40.0325 6.28023C40.8875 6.30023 41.6267 6.62356 42.25 7.25023C42.8733 7.87689 43.1858 8.60606 43.1875 9.43773C43.1892 10.2694 42.8767 10.9986 42.25 11.6252L23.875 30.0002Z" fill="#333333"/>
</svg>
