<svg width="26" height="26" viewBox="0 0 26 26" fill="none" xmlns="http://www.w3.org/2000/svg">
<path d="M9.94492 1.0835H16.0549L16.7558 4.59025C17.3362 4.85026 17.888 5.16975 18.4025 5.54358L21.7923 4.39633L24.8473 9.68733L22.1595 12.049C22.2246 12.6814 22.2246 13.3189 22.1595 13.9513L24.8462 16.313L21.7923 21.604L18.4025 20.4578C17.888 20.8313 17.3361 21.1504 16.7558 21.4101L16.0538 24.9168H9.94492L9.244 21.4101C8.66365 21.15 8.11182 20.8306 7.59734 20.4567L4.20759 21.604L1.15259 16.313L3.84034 13.9513C3.77533 13.3189 3.77533 12.6814 3.84034 12.049L1.15367 9.68733L4.20867 4.39633L7.59734 5.5425C8.11185 5.16903 8.66369 4.84991 9.244 4.59025L9.94492 1.0835ZM11.7216 3.25016L11.1344 6.18058L10.5657 6.38966C9.81185 6.6678 9.11127 7.07305 8.49434 7.58783L8.0285 7.97675L5.19559 7.018L3.91725 9.23233L6.16192 11.2051L6.059 11.802C5.92315 12.595 5.92315 13.4053 6.059 14.1983L6.16192 14.7942L3.91617 16.768L5.1945 18.9823L8.0285 18.0236L8.49434 18.4125C9.11161 18.9268 9.81211 19.332 10.5657 19.6107L11.1344 19.8197L11.7216 22.7502H14.2783L14.8654 19.8197L15.4342 19.6107C16.188 19.3325 16.8885 18.9272 17.5055 18.4125L17.9713 18.0236L20.8053 18.9823L22.0837 16.768L19.839 14.7952L19.9408 14.1983C20.0766 13.4053 20.0766 12.595 19.9408 11.802L19.839 11.2062L22.0837 9.23233L20.8053 7.018L17.9713 7.97675L17.5055 7.58783C16.8886 7.07302 16.188 6.66776 15.4342 6.38966L14.8654 6.18058L14.2783 3.25016H11.7216ZM12.9999 9.75016C12.138 9.75016 11.3113 10.0926 10.7018 10.7021C10.0923 11.3116 9.74992 12.1382 9.74992 13.0002C9.74992 13.8621 10.0923 14.6888 10.7018 15.2983C11.3113 15.9078 12.138 16.2502 12.9999 16.2502C13.8619 16.2502 14.6885 15.9078 15.298 15.2983C15.9075 14.6888 16.2499 13.8621 16.2499 13.0002C16.2499 12.1382 15.9075 11.3116 15.298 10.7021C14.6885 10.0926 13.8619 9.75016 12.9999 9.75016ZM7.58325 13.0002C7.58325 11.5636 8.15394 10.1858 9.16976 9.17C10.1856 8.15418 11.5633 7.5835 12.9999 7.5835C14.4365 7.5835 15.8143 8.15418 16.8301 9.17C17.8459 10.1858 18.4166 11.5636 18.4166 13.0002C18.4166 14.4368 17.8459 15.8145 16.8301 16.8303C15.8143 17.8461 14.4365 18.4168 12.9999 18.4168C11.5633 18.4168 10.1856 17.8461 9.16976 16.8303C8.15394 15.8145 7.58325 14.4368 7.58325 13.0002Z" fill="#777777"/>
</svg>
