<svg width="26" height="26" viewBox="0 0 26 26" fill="none" xmlns="http://www.w3.org/2000/svg">
<path d="M22.2737 11.0376L14.1487 2.91259C13.844 2.60807 13.4308 2.43701 13 2.43701C12.5692 2.43701 12.1561 2.60807 11.8513 2.91259L3.72634 11.0376C3.57471 11.1881 3.45451 11.3672 3.37274 11.5646C3.29097 11.762 3.24925 11.9736 3.25001 12.1873V21.9373C3.25001 22.1528 3.33561 22.3594 3.48799 22.5118C3.64036 22.6642 3.84702 22.7498 4.06251 22.7498H10.5625C10.778 22.7498 10.9847 22.6642 11.137 22.5118C11.2894 22.3594 11.375 22.1528 11.375 21.9373V16.2498H14.625V21.9373C14.625 22.1528 14.7106 22.3594 14.863 22.5118C15.0154 22.6642 15.222 22.7498 15.4375 22.7498H21.9375C22.153 22.7498 22.3597 22.6642 22.512 22.5118C22.6644 22.3594 22.75 22.1528 22.75 21.9373V12.1873C22.7508 11.9736 22.7091 11.762 22.6273 11.5646C22.5455 11.3672 22.4253 11.1881 22.2737 11.0376ZM21.125 21.1248H16.25V15.4373C16.25 15.2218 16.1644 15.0151 16.012 14.8627C15.8597 14.7104 15.653 14.6248 15.4375 14.6248H10.5625C10.347 14.6248 10.1404 14.7104 9.98799 14.8627C9.83561 15.0151 9.75001 15.2218 9.75001 15.4373V21.1248H4.87501V12.1873L13 4.06227L21.125 12.1873V21.1248Z" fill="#777777"/>
</svg>
