<svg width="12" height="12" viewBox="0 0 12 12" fill="none" xmlns="http://www.w3.org/2000/svg">
<path d="M2.5 9.5H3.2125L8.1 4.6125L7.3875 3.9L2.5 8.7875V9.5ZM2 10.5C1.85833 10.5 1.73967 10.452 1.644 10.356C1.54833 10.26 1.50033 10.1413 1.5 10V8.7875C1.5 8.65417 1.525 8.527 1.575 8.406C1.625 8.285 1.69583 8.17883 1.7875 8.0875L8.1 1.7875C8.2 1.69583 8.3105 1.625 8.4315 1.575C8.5525 1.525 8.6795 1.5 8.8125 1.5C8.9455 1.5 9.07467 1.525 9.2 1.575C9.32533 1.625 9.43367 1.7 9.525 1.8L10.2125 2.5C10.3125 2.59167 10.3853 2.7 10.431 2.825C10.4767 2.95 10.4997 3.075 10.5 3.2C10.5 3.33333 10.477 3.4605 10.431 3.5815C10.385 3.7025 10.3122 3.81283 10.2125 3.9125L3.9125 10.2125C3.82083 10.3042 3.7145 10.375 3.5935 10.425C3.4725 10.475 3.3455 10.5 3.2125 10.5H2ZM7.7375 4.2625L7.3875 3.9L8.1 4.6125L7.7375 4.2625Z" fill="#555555"/>
</svg>
