<svg width="26" height="26" viewBox="0 0 26 26" fill="none" xmlns="http://www.w3.org/2000/svg">
<path fill-rule="evenodd" clip-rule="evenodd" d="M21.053 1.98617C21.2155 1.8237 21.4359 1.73242 21.6657 1.73242C21.8955 1.73242 22.1159 1.8237 22.2784 1.98617L25.7451 5.45284C25.8258 5.53334 25.8898 5.62898 25.9335 5.73427C25.9772 5.83956 25.9997 5.95244 25.9997 6.06644C25.9997 6.18043 25.9772 6.29331 25.9335 6.3986C25.8898 6.50389 25.8258 6.59953 25.7451 6.68004L18.9123 13.5128C18.7806 13.645 18.6284 13.755 18.4616 13.8387L11.6548 17.2412C11.4923 17.3224 11.3083 17.3504 11.129 17.3213C10.9496 17.2922 10.784 17.2075 10.6554 17.0791C10.5268 16.9507 10.4419 16.7852 10.4125 16.6059C10.3831 16.4266 10.4109 16.2426 10.4918 16.0799L13.8943 9.27137C13.9779 9.10459 14.088 8.95241 14.2202 8.8207L21.053 1.98617ZM21.6666 3.82524L15.4439 10.0479L13.6464 13.6463L14.0867 14.0866L17.6868 12.2874L23.9078 6.06644L21.6666 3.82524ZM17.3332 3.46644L15.5999 5.19977H8.49322C7.75135 5.19977 7.24522 5.19977 6.85695 5.2327C6.47562 5.2639 6.28149 5.31937 6.14629 5.3887C5.82015 5.55488 5.555 5.82004 5.38882 6.14617C5.31949 6.28137 5.26402 6.4755 5.23282 6.85684C5.19989 7.2451 5.19989 7.75124 5.19989 8.4931V19.2398C5.19989 19.9816 5.19989 20.4878 5.23282 20.876C5.26402 21.2574 5.31949 21.4515 5.38882 21.5867C5.555 21.9128 5.82015 22.178 6.14629 22.3442C6.28149 22.4135 6.47562 22.469 6.85695 22.5002C7.24695 22.5331 7.75135 22.5331 8.49322 22.5331H19.2399C19.9818 22.5331 20.4879 22.5331 20.8762 22.5002C21.2575 22.469 21.4516 22.4135 21.5868 22.3442C21.913 22.178 22.1781 21.9128 22.3443 21.5867C22.4136 21.4515 22.4691 21.2574 22.5003 20.876C22.5332 20.486 22.5332 19.9816 22.5332 19.2398V12.1331L24.2666 10.3998V19.2744C24.2666 19.973 24.2666 20.5484 24.2284 21.0182C24.1886 21.5052 24.1036 21.9542 23.8887 22.3736C23.5563 23.0259 23.026 23.5562 22.3738 23.8886C21.9526 24.1035 21.5054 24.1884 21.0183 24.2283C20.5503 24.2664 19.9731 24.2664 19.2763 24.2664H8.45855C7.76002 24.2664 7.18455 24.2664 6.71482 24.2283C6.22775 24.1884 5.77882 24.1035 5.35935 23.8886C4.70709 23.5562 4.17678 23.0259 3.84442 22.3736C3.62949 21.9524 3.54455 21.5052 3.50469 21.0182C3.46655 20.5502 3.46655 19.973 3.46655 19.2744V8.45844C3.46655 7.7599 3.46655 7.18444 3.50469 6.7147C3.54455 6.22764 3.62949 5.7787 3.84442 5.35924C4.17678 4.70697 4.70709 4.17666 5.35935 3.8443C5.78055 3.62937 6.22775 3.54444 6.71482 3.50457C7.18282 3.46644 7.76002 3.46644 8.45855 3.46644H8.49322H17.3332Z" fill="#888888"/>
</svg>
