<svg width="10" height="12" viewBox="0 0 10 12" fill="none" xmlns="http://www.w3.org/2000/svg">
<g clip-path="url(#clip0_67_10)">
<path d="M7.38124 1.6569H9.03815C9.3394 1.6569 9.57371 1.89121 9.57371 2.19247V2.57741C9.57371 2.82845 9.38961 3.06276 9.1553 3.11297V11.0628C9.1553 11.5816 8.72015 12 8.18459 12H1.38961C0.854045 12 0.435635 11.5816 0.435635 11.0628V3.11297C0.201325 3.06276 0.000488281 2.82845 0.000488281 2.57741V2.19247C0.000488281 1.89121 0.251534 1.6569 0.55279 1.6569H2.19296V0.953975C2.19296 0.435146 2.61137 0 3.14693 0H6.42727C6.96283 0 7.38124 0.435146 7.38124 0.953975V1.6569ZM6.42727 0.83682H3.14693C3.06325 0.83682 3.01304 0.887029 3.01304 0.953975V1.6569H6.56116V0.953975C6.56116 0.887029 6.51095 0.83682 6.42727 0.83682ZM1.65739 10.9289H7.93354C8.00049 10.9289 8.0507 10.8452 8.0507 10.7782V3.12971H1.5235V10.7782C1.5235 10.8452 1.57371 10.9289 1.65739 10.9289ZM2.9461 10.3096H2.84568C2.54442 10.3096 2.29338 10.0586 2.29338 9.75732V4.28452C2.29338 4 2.54442 3.76569 2.84568 3.76569H2.9461C3.23061 3.76569 3.48166 4 3.48166 4.28452V9.75732C3.48166 10.0586 3.23061 10.3096 2.9461 10.3096ZM4.83731 10.3096H4.75363C4.45237 10.3096 4.20133 10.0586 4.20133 9.75732V4.28452C4.20133 4 4.45237 3.76569 4.75363 3.76569H4.83731C5.13856 3.76569 5.38961 4 5.38961 4.28452V9.75732C5.38961 10.0586 5.13856 10.3096 4.83731 10.3096ZM6.72852 10.3096H6.64484C6.34359 10.3096 6.10928 10.0586 6.10928 9.75732V4.28452C6.10928 4 6.34359 3.76569 6.64484 3.76569H6.72852C7.02978 3.76569 7.28082 4 7.28082 4.28452V9.75732C7.28082 10.0586 7.02978 10.3096 6.72852 10.3096Z" fill="#555555"/>
</g>
<defs>
<clipPath id="clip0_67_10">
<rect width="9.5736" height="12" fill="white"/>
</clipPath>
</defs>
</svg>
